<svg width="130" height="129" viewBox="0 0 130 129" fill="none" xmlns="http://www.w3.org/2000/svg">
<g clip-path="url(#clip0_12_200)">
<path d="M43.5001 64.5C43.5001 65.9255 44.0664 67.2927 45.0744 68.3007C46.0824 69.3087 47.4495 69.875 48.8751 69.875C50.3006 69.875 51.6678 69.3087 52.6758 68.3007C53.6838 67.2927 54.2501 65.9255 54.2501 64.5C54.2501 63.0745 53.6838 61.7073 52.6758 60.6993C51.6678 59.6913 50.3006 59.125 48.8751 59.125C47.4495 59.125 46.0824 59.6913 45.0744 60.6993C44.0664 61.7073 43.5001 63.0745 43.5001 64.5Z" stroke="white" stroke-width="10" stroke-linecap="round" stroke-linejoin="round"/>
<path d="M75.7499 64.5C75.7499 65.9255 76.3162 67.2927 77.3242 68.3007C78.3323 69.3087 79.6994 69.875 81.1249 69.875C82.5505 69.875 83.9176 69.3087 84.9256 68.3007C85.9337 67.2927 86.5 65.9255 86.5 64.5C86.5 63.0745 85.9337 61.7073 84.9256 60.6993C83.9176 59.6913 82.5505 59.125 81.1249 59.125C79.6994 59.125 78.3323 59.6913 77.3242 60.6993C76.3162 61.7073 75.7499 63.0745 75.7499 64.5Z" stroke="white" stroke-width="10" stroke-linecap="round" stroke-linejoin="round"/>
<path d="M83.8125 91.3751C83.8125 96.7501 91.875 107.5 94.5625 107.5C102.625 107.5 109.79 98.54 113.375 91.3751C116.96 82.415 116.062 60.0227 105.312 29.5625C97.4811 24.1069 89.1875 22.36 81.125 21.5L75.9005 31.8361C68.6922 30.5918 61.324 30.5918 54.1156 31.8361L48.875 21.5C40.8125 22.36 32.5189 24.1069 24.6875 29.5625C13.9375 60.0227 13.0399 82.415 16.625 91.3751C20.2102 98.54 27.375 107.5 35.4375 107.5C38.125 107.5 46.1875 96.7501 46.1875 91.3751" stroke="white" stroke-width="10" stroke-linecap="round" stroke-linejoin="round"/>
<path d="M38.125 88.6875C56.9375 94.0625 73.0625 94.0625 91.875 88.6875" stroke="white" stroke-width="10" stroke-linecap="round" stroke-linejoin="round"/>
</g>
<defs>
<clipPath id="clip0_12_200">
<rect x="0.5" width="129" height="129" fill="white"/>
</clipPath>
</defs>
</svg>
