<svg width="129" height="129" viewBox="0 0 129 129" fill="none" xmlns="http://www.w3.org/2000/svg">
<g clip-path="url(#clip0_12_262)">
<path d="M48.375 102.125C25.2625 109.65 25.2625 88.6874 16.125 85.9999M80.625 112.875V94.0624C80.625 88.6874 81.1625 86.5374 77.9375 83.3124C92.9875 81.6999 107.5 75.7874 107.5 51.0624C107.493 44.6391 104.987 38.4705 100.513 33.8624C102.611 28.283 102.418 22.0999 99.975 16.6624C99.975 16.6624 94.0625 15.0499 81.1625 23.6499C70.2364 20.8043 58.7636 20.8043 47.8375 23.6499C34.9375 15.0499 29.025 16.6624 29.025 16.6624C26.582 22.0999 26.3887 28.283 28.4875 33.8624C24.0126 38.4705 21.5065 44.6391 21.5 51.0624C21.5 75.7874 36.0125 81.6999 51.0625 83.3124C47.8375 86.5374 47.8375 89.7624 48.375 94.0624V112.875" stroke="white" stroke-width="10" stroke-linecap="round" stroke-linejoin="round"/>
</g>
<defs>
<clipPath id="clip0_12_262">
<rect width="129" height="129" fill="white"/>
</clipPath>
</defs>
</svg>
