<svg width="130" height="129" viewBox="0 0 130 129" fill="none" xmlns="http://www.w3.org/2000/svg">
<g clip-path="url(#clip0_12_239)">
<path d="M22 32.25C22 29.3989 23.1326 26.6646 25.1486 24.6486C27.1646 22.6326 29.8989 21.5 32.75 21.5H97.25C100.101 21.5 102.835 22.6326 104.851 24.6486C106.867 26.6646 108 29.3989 108 32.25V96.75C108 99.6011 106.867 102.335 104.851 104.351C102.835 106.367 100.101 107.5 97.25 107.5H32.75C29.8989 107.5 27.1646 106.367 25.1486 104.351C23.1326 102.335 22 99.6011 22 96.75V32.25Z" stroke="white" stroke-width="10" stroke-linecap="round" stroke-linejoin="round"/>
<path d="M43.5 59.125V86" stroke="white" stroke-width="10" stroke-linecap="round" stroke-linejoin="round"/>
<path d="M43.5 43V43.0538" stroke="white" stroke-width="10" stroke-linecap="round" stroke-linejoin="round"/>
<path d="M65 86V59.125" stroke="white" stroke-width="10" stroke-linecap="round" stroke-linejoin="round"/>
<path d="M86.5 86V69.875C86.5 67.0239 85.3674 64.2896 83.3514 62.2736C81.3354 60.2576 78.6011 59.125 75.75 59.125C72.8989 59.125 70.1646 60.2576 68.1486 62.2736C66.1326 64.2896 65 67.0239 65 69.875" stroke="white" stroke-width="10" stroke-linecap="round" stroke-linejoin="round"/>
</g>
<defs>
<clipPath id="clip0_12_239">
<rect width="129" height="129" fill="white" transform="translate(0.5)"/>
</clipPath>
</defs>
</svg>
