<svg width="129" height="129" viewBox="0 0 129 129" fill="none" xmlns="http://www.w3.org/2000/svg">
<g clip-path="url(#clip0_12_229)">
<path d="M16 112.659L24.8688 92.2343C18.0837 82.6026 15.0468 70.8258 16.3281 59.1141C17.6094 47.4024 23.1207 36.5608 31.8278 28.624C40.5349 20.6871 51.8392 16.2007 63.6192 16.0066C75.3992 15.8125 86.8451 19.924 95.809 27.5697C104.773 35.2153 110.638 45.8694 112.305 57.5326C113.971 69.1957 111.324 81.0662 104.86 90.9162C98.396 100.766 88.5595 107.919 77.1965 111.031C65.8335 114.144 53.7251 113.003 43.1438 107.822L16 112.659Z" stroke="white" stroke-width="10" stroke-linecap="round" stroke-linejoin="round"/>
<path d="M47 55.0625C47 55.7753 47.2831 56.4588 47.7871 56.9629C48.2912 57.4669 48.9747 57.75 49.6875 57.75C50.4003 57.75 51.0838 57.4669 51.5879 56.9629C52.0919 56.4588 52.375 55.7753 52.375 55.0625V49.6875C52.375 48.9747 52.0919 48.2912 51.5879 47.7871C51.0838 47.2831 50.4003 47 49.6875 47C48.9747 47 48.2912 47.2831 47.7871 47.7871C47.2831 48.2912 47 48.9747 47 49.6875V55.0625ZM47 55.0625C47 62.1902 49.8315 69.026 54.8715 74.066C59.9115 79.106 66.7473 81.9375 73.875 81.9375M73.875 81.9375H79.25C79.9628 81.9375 80.6463 81.6544 81.1504 81.1504C81.6544 80.6463 81.9375 79.9628 81.9375 79.25C81.9375 78.5372 81.6544 77.8537 81.1504 77.3496C80.6463 76.8456 79.9628 76.5625 79.25 76.5625H73.875C73.1622 76.5625 72.4787 76.8456 71.9746 77.3496C71.4706 77.8537 71.1875 78.5372 71.1875 79.25C71.1875 79.9628 71.4706 80.6463 71.9746 81.1504C72.4787 81.6544 73.1622 81.9375 73.875 81.9375Z" stroke="white" stroke-width="10" stroke-linecap="round" stroke-linejoin="round"/>
</g>
<defs>
<clipPath id="clip0_12_229">
<rect width="129" height="129" fill="white"/>
</clipPath>
</defs>
</svg>
